PathFileType	4	(X/Y/Z)	C:\Users\Basilio\Documents\Thesis Gigler\squatting_fais\c3dfiles\047\SLS_pre_back3\markers_experimental.trc
DataRate	CameraRate	NumFrames	NumMarkers	Units	OrigDataRate	OrigDataStartFrame	OrigNumFrames
200.000000	200.000000	4	61	mm	200.000000	1114	1274
Frame#	Time	FHD			LBHD			RBHD			C7			T10			CLAV			LSHO			LUUPA			LMUPA			LDUPA			LLEP			LMEP			LRAD			LUL			LRFIN			RSHO			RUPA1			RMUPA			RDUPA			RLEP			RMEP			RRAD			RUL			RUFIN			LASI			RASI			USACR			LSACR			RSACR			LTHI1			LTHI2			LTHI3			LTHI4			LLFC			LTIB1			LTIB2			LTIB3			LTIB4			LLMAL			LMMAL			LMT1			LMT2			LMT5			RTHI			RTHI2			RTHI3			RTHI4			RLFC			RMFC			RTIB1			RTIB2			RTIB3			RTIB4			RLMAL			RMMAL			RHEE			RMT1			RMT2			RMT5			LMFC			*60			
		X1	Y1	Z1	X2	Y2	Z2	X3	Y3	Z3	X4	Y4	Z4	X5	Y5	Z5	X6	Y6	Z6	X7	Y7	Z7	X8	Y8	Z8	X9	Y9	Z9	X10	Y10	Z10	X11	Y11	Z11	X12	Y12	Z12	X13	Y13	Z13	X14	Y14	Z14	X15	Y15	Z15	X16	Y16	Z16	X17	Y17	Z17	X18	Y18	Z18	X19	Y19	Z19	X20	Y20	Z20	X21	Y21	Z21	X22	Y22	Z22	X23	Y23	Z23	X24	Y24	Z24	X25	Y25	Z25	X26	Y26	Z26	X27	Y27	Z27	X28	Y28	Z28	X29	Y29	Z29	X30	Y30	Z30	X31	Y31	Z31	X32	Y32	Z32	X33	Y33	Z33	X34	Y34	Z34	X35	Y35	Z35	X36	Y36	Z36	X37	Y37	Z37	X38	Y38	Z38	X39	Y39	Z39	X40	Y40	Z40	X41	Y41	Z41	X42	Y42	Z42	X43	Y43	Z43	X44	Y44	Z44	X45	Y45	Z45	X46	Y46	Z46	X47	Y47	Z47	X48	Y48	Z48	X49	Y49	Z49	X50	Y50	Z50	X51	Y51	Z51	X52	Y52	Z52	X53	Y53	Z53	X54	Y54	Z54	X55	Y55	Z55	X56	Y56	Z56	X57	Y57	Z57	X58	Y58	Z58	X59	Y59	Z59	X60	Y60	Z60	X61	Y61	Z61	

1115	5.57	-213.3901977539063	1753.388427734375	-1125.419555664063	-387.045379638672	1699.240478515625	-1150.765258789063	-364.3386840820313	1704.643310546875	-1003.272399902344	-393.1268920898439	1522.456176757813	-1075.168701171875	-404.1201171875001	1215.104614257813	-1040.187744140625	-239.8607330322266	1472.7412109375	-1104.4189453125	-320.5068969726563	1473.987426757813	-1258.083129882813	-257.5570983886719	1315.656982421875	-1347.271240234375	-213.7650756835938	1340.528686523438	-1348.396850585938	-196.2930450439454	1284.11376953125	-1359.017700195313	-124.3894424438477	1268.813354492188	-1364.529052734375	-138.5364837646485	1223.080200195313	-1287.004150390625	37.54582214355469	1388.744873046875	-1202.871704101563	74.09339141845705	1323.586547851563	-1194.638305664063	124.7294845581055	1405.360595703125	-1196.867553710938	-269.3959655761719	1511.250244140625	-940.7447509765627	-170.7828216552735	1363.131469726563	-845.4104003906252	-131.6074523925782	1382.377319335938	-867.0300903320315	-110.2297058105469	1328.3173828125	-851.650573730469	-39.45255661010743	1310.579345703125	-871.833923339844	-74.86462402343751	1246.722045898438	-924.3030395507815	nan	nan	nan	119.2789840698242	1335.093627929688	-1081.888671875	98.14350891113284	1420.017944335938	-1110.49609375	-235.0740051269532	984.6480712890627	-1122.37890625	-225.7638244628907	1019.623840332031	-894.5014648437502	-411.5889892578126	1080.485717773438	-1015.795349121094	-417.6454467773439	1045.363403320313	-1038.70654296875	-414.2772521972657	1053.969482421875	-981.1363525390627	-319.3653564453126	827.9678955078127	-1176.800659179688	-285.0026855468751	750.2516479492189	-1173.974365234375	-236.394760131836	754.5769042968751	-1162.391845703125	-313.6264648437501	696.7387084960939	-1165.097290039063	-336.8831481933594	527.7927246093751	-1120.46484375	-302.6241455078126	345.9957885742188	-1021.017456054688	-310.2171936035157	297.7343444824219	-1094.570068359375	-293.5939941406251	297.2946472167969	-1049.667358398438	-305.7069396972657	220.9529876708985	-1016.458618164063	-353.5523376464844	123.1073303222657	-1058.608520507813	-331.5091857910157	137.5650177001953	-972.5972900390627	-210.1056060791016	64.67403411865236	-991.4871826171877	-208.7282714843751	61.60216903686525	-1037.031860351563	-259.1213073730469	50.01853179931642	-1080.235717773438	-272.3955078125001	846.9908447265627	-775.9924926757815	-220.023910522461	805.4908447265627	-768.560485839844	-191.1860961914063	812.2044067382815	-780.0057373046877	-224.854476928711	722.6250000000001	-754.3973388671876	-192.7044372558594	593.9320678710939	-757.4075317382814	-181.0794372558594	555.8203735351564	-883.2309570312502	-273.3927612304688	500.1166381835939	-759.8069458007814	-373.9103088378907	537.6218261718751	-733.8585205078126	-356.3426208496094	493.9600830078126	-736.6943359375001	-397.0921020507814	459.9390563964845	-765.7556152343751	-563.1156005859376	472.1122436523439	-744.1720581054689	-533.2824096679689	431.1179809570314	-821.8050537109377	-591.0532226562501	511.035614013672	-810.7488403320315	-590.9969482421876	303.9115295410157	-791.7949218750002	-595.1921997070314	305.6474914550782	-746.0709228515626	-635.6960449218751	358.4668273925782	-707.8952026367189	-306.6350708007813	522.7808837890626	-999.3585205078127	nan	nan	nan	
1116	5.575	-213.4722747802735	1753.343383789063	-1125.556396484375	-387.4988098144532	1699.272216796875	-1150.760131835938	-364.7772827148438	1704.670532226563	-1003.292297363281	-393.6393432617189	1522.21435546875	-1075.206909179688	-404.2842407226564	1214.961547851563	-1040.307739257813	-240.2239379882813	1472.699096679688	-1104.419677734375	-320.8224792480469	1474.021850585938	-1258.125244140625	-257.9478454589844	1315.80224609375	-1347.385864257813	-214.1456298828126	1340.749267578125	-1348.534423828125	-196.7071533203126	1284.282348632813	-1359.203979492188	-124.8134307861328	1268.9951171875	-1364.713989257813	-138.863510131836	1222.874633789063	-1287.005493164063	37.17549896240235	1388.775512695313	-1202.91943359375	73.66455841064455	1323.607299804688	-1194.687622070313	124.4017105102539	1405.361938476563	-1196.913452148438	-270.0672607421876	1511.148315429688	-940.6214599609377	-171.058837890625	1363.332885742188	-845.7070922851565	-131.9331970214844	1382.375366210938	-867.0690917968752	-110.9734725952149	1328.337890625	-851.429382324219	-39.71095657348634	1310.67529296875	-871.9752197265627	-75.18709564208986	1246.830444335938	-924.2537841796877	nan	nan	nan	118.955307006836	1335.082397460938	-1081.862182617188	97.82666015625003	1420.537475585938	-1111.180786132813	-234.9312896728516	984.6509399414065	-1122.528198242188	-225.7525329589844	1019.615295410156	-894.549011230469	-411.5501098632814	1080.323608398438	-1015.907775878906	-417.6564941406251	1045.217895507813	-1038.844116210938	-414.2593078613282	1053.888549804688	-981.3436279296877	-319.3421936035157	827.9978027343752	-1176.946655273438	-284.9524536132813	750.2649536132814	-1174.17236328125	-236.3900604248047	754.4738159179689	-1162.552612304688	-313.5220947265626	696.7647705078126	-1165.21533203125	-336.9218139648438	527.7492065429689	-1120.533325195313	-302.6240844726563	345.9379577636719	-1021.017883300781	-310.1737670898438	297.7027587890626	-1094.611328125	-293.5433349609376	297.3515930175782	-1049.921752929688	-305.6993408203126	220.9998168945313	-1016.441101074219	-353.5375366210938	123.1134948730469	-1058.6025390625	-331.5108032226563	137.6028594970703	-972.5800781250002	-210.0320434570313	64.69655609130861	-991.5153808593752	-208.6233825683594	62.0121421813965	-1036.891967773438	-259.0634765625001	50.04414749145509	-1080.21923828125	-272.0734558105469	847.0356445312502	-776.372009277344	-219.8274688720704	805.580749511719	-768.3394165039065	-190.6510314941407	812.037048339844	-781.080749511719	-224.5613708496094	722.8399658203126	-754.8815307617189	-192.2147064208985	593.8943481445314	-757.6924438476564	-180.3547515869141	555.9191284179689	-883.620300292969	-272.6550598144532	499.737030029297	-758.8888549804689	-373.0360717773438	537.2845458984376	-734.1723632812501	-355.4936218261719	493.5539550781251	-736.8602294921876	-396.5241088867189	459.535858154297	-764.5705566406251	-561.9978027343751	471.4841918945314	-744.4794921875001	-532.2401733398439	430.469451904297	-821.8896484375002	-590.2407226562501	510.329803466797	-810.8494873046877	-590.0513916015626	303.2860717773438	-791.7321777343752	-593.9727172851564	305.0197448730469	-746.0446166992189	-634.7058105468751	357.7305297851563	-707.8767700195314	-306.6592102050782	522.7510375976564	-999.4483642578127	nan	nan	nan	
1117	5.58	-214.0049133300782	1753.18359375	-1125.449340820313	-387.9804077148439	1699.37744140625	-1150.772338867188	-365.1731872558594	1704.636840820313	-1003.349975585938	-394.1553039550782	1522.205444335938	-1075.152709960938	-404.3726196289064	1214.755981445313	-1040.42822265625	-240.4891510009766	1472.742919921875	-1104.50830078125	-321.5127563476563	1474.043579101563	-1258.05322265625	-258.3805236816407	1315.958129882813	-1347.523559570313	-214.4264678955079	1340.961181640625	-1348.736328125	-196.9502868652344	1284.339111328125	-1359.420532226563	-125.0338745117188	1269.076538085938	-1364.9228515625	-138.9390563964844	1222.724975585938	-1286.874755859375	36.82885742187501	1388.8251953125	-1202.90185546875	73.4470901489258	1323.672241210938	-1194.844482421875	123.935546875	1405.40673828125	-1196.908813476563	-270.3643188476563	1510.86669921875	-940.758728027344	-171.3392333984375	1363.235107421875	-845.7434692382815	-132.3257141113282	1382.44140625	-867.130798339844	-111.2657546997071	1328.345581054688	-851.439880371094	-40.19662857055665	1310.939331054688	-871.8393554687502	-75.57424926757814	1246.718872070313	-924.129821777344	nan	nan	nan	118.3909683227539	1335.002807617188	-1081.440795898438	97.70908355712893	1420.858276367188	-1111.331909179688	-234.873764038086	984.7158813476565	-1122.776000976563	-225.5104370117188	1019.654846191406	-894.8425903320315	-411.5233154296876	1080.119750976563	-1016.154235839844	-417.6503906250001	1045.070068359375	-1039.01171875	-414.3807067871095	1053.68408203125	-981.501892089844	-319.3797912597657	828.0188598632815	-1177.016479492188	-284.8535766601563	750.2217407226564	-1174.337524414063	-236.3819580078126	754.4570922851564	-1162.737426757813	-313.5710754394532	696.7806396484376	-1165.304565429688	-336.9326171875001	527.6826171875001	-1120.679077148438	-302.5963745117188	345.9699401855469	-1021.272705078125	-310.1638488769532	297.7182617187501	-1094.81787109375	-293.5543212890626	297.3257751464844	-1050.037109375	-305.7503356933594	220.9777832031251	-1016.579223632813	-353.5512695312501	123.0853347778321	-1058.598999023438	-331.5185241699219	137.6436157226563	-972.5754394531252	-209.9682006835938	64.68070220947267	-991.537048339844	-208.7002105712891	61.97534561157228	-1036.826538085938	-259.0679321289063	50.01605606079103	-1080.217651367188	-271.7022094726563	847.0237426757815	-776.8009033203127	-219.4990234375001	805.6756591796877	-768.5346679687502	-190.3289642333985	812.0193481445315	-781.2915039062502	-223.9790954589844	722.7501220703126	-755.1138916015626	-191.6244659423828	593.8362426757814	-758.0560913085939	-179.8150634765625	556.1211547851564	-883.9056396484377	-271.7461853027344	499.7423706054689	-759.9316406250001	-372.2091979980469	536.9468383789064	-734.3167114257814	-354.9730529785157	493.469940185547	-737.0344848632814	-395.3975830078126	459.0356750488282	-765.8540039062501	-561.3953857421876	470.8435974121095	-744.4825439453126	-531.2794799804689	429.8115844726564	-821.8914184570315	-589.8085937500001	509.7063598632814	-810.7471313476565	-588.7252807617189	302.4569702148438	-791.682800292969	-592.8248291015626	304.2490539550782	-746.2824096679689	-633.5429687500001	356.8782653808594	-707.9082641601564	-306.5159606933594	522.7311401367189	-999.651550292969	nan	nan	nan	
1118	5.585	-214.3619079589844	1752.9921875	-1125.3671875	-388.3088684082032	1699.3984375	-1150.806640625	-365.5516662597657	1704.552124023438	-1003.366943359375	-394.6783447265626	1522.1171875	-1075.180297851563	-404.5827636718751	1214.634521484375	-1040.47509765625	-241.0735626220704	1472.764038085938	-1104.606201171875	-321.5835876464844	1474.016479492188	-1258.233642578125	-258.7510681152344	1316.088989257813	-1347.680053710938	-214.8199462890626	1341.135864257813	-1348.9326171875	-197.2743530273438	1284.552490234375	-1359.595825195313	-125.3519744873047	1269.308471679688	-1365.109375	-139.248519897461	1222.933227539063	-1287.347290039063	36.2693099975586	1388.866455078125	-1202.791137695313	72.99359130859376	1323.810424804688	-1194.972412109375	123.5544662475586	1405.512084960938	-1197.067626953125	-270.6792297363282	1510.8173828125	-940.8747558593752	-171.9387664794922	1363.18798828125	-845.7456665039065	-132.5153350830078	1382.541015625	-867.2272949218752	-111.3751831054688	1328.475219726563	-851.602966308594	-40.35651016235352	1311.01806640625	-872.0729980468752	-75.83794403076173	1246.76708984375	-924.1262817382815	nan	nan	nan	118.2174148559571	1335.286987304688	-1081.770141601563	97.43454742431643	1420.712646484375	-1111.089965820313	-234.7118072509766	984.8259887695315	-1123.038940429688	-225.3367767333985	1019.679565429688	-895.2062988281252	-411.4415283203126	1079.804443359375	-1016.391967773438	-417.6201477050782	1044.89892578125	-1039.212524414063	-414.2865295410157	1053.397094726563	-981.7224121093752	-319.2816772460938	827.944763183594	-1177.165161132813	-284.8514404296876	750.2358398437501	-1174.482543945313	-236.2090606689454	754.5405273437501	-1163.080810546875	-313.4976806640626	696.7366943359376	-1165.51171875	-337.1049194335938	527.7254638671876	-1120.772583007813	-302.5712585449219	345.9615783691407	-1021.609680175781	-310.3893432617188	297.6098632812501	-1094.880126953125	-293.5990600585938	297.3248901367188	-1050.196899414063	-305.7682495117188	220.9784545898438	-1016.575256347656	-353.5910949707032	123.0728912353516	-1058.674560546875	-331.5714721679688	137.6410522460938	-972.6384277343752	-210.084457397461	64.65999603271486	-991.5391235351565	-208.6173553466797	61.98418426513673	-1036.91748046875	-259.0649719238282	50.0204200744629	-1080.251708984375	-271.4483337402344	846.979187011719	-777.2784423828127	-219.2174530029297	805.6072998046877	-768.631774902344	-190.2003021240235	812.0000610351565	-781.2629394531252	-223.4467926025391	722.8078002929689	-755.3862915039064	-190.7581939697266	593.8864135742189	-758.3167114257814	-179.137680053711	556.2600708007814	-884.1474609375002	-271.1654663085938	499.7355346679689	-759.7255859375001	-371.5248718261719	536.6085205078126	-734.5614624023439	-354.1702575683594	493.2814331054689	-737.3291625976564	-394.809295654297	458.8992919921876	-765.8700561523439	-560.7415161132814	470.3388671875001	-744.4165039062501	-530.5700683593751	429.4340820312501	-821.992126464844	-589.1414794921876	509.0813293457032	-810.6604003906252	-587.7245483398439	301.7816162109376	-791.8355712890627	-591.7380981445314	303.7943420410157	-746.1518554687501	-632.7120971679689	356.1059875488282	-707.8614501953126	-306.4364013671876	522.6589965820314	-999.8553466796877	nan	nan	nan	
